<?xml version="1.0" encoding="UTF-8" standalone="no"?>
<!-- Created with Inkscape (http://www.inkscape.org/) -->

<svg
   version="1.1"
   id="svg2"
   xml:space="preserve"
   width="404.64133"
   height="175.8"
   viewBox="0 0 404.64132 175.8"
   xmlns="http://www.w3.org/2000/svg"
   xmlns:svg="http://www.w3.org/2000/svg"><defs
     id="defs6"><clipPath
       clipPathUnits="userSpaceOnUse"
       id="clipPath580"><path
         d="M 0,0 H 595.276 V 793.701 H 0 Z"
         id="path578" /></clipPath><clipPath
       clipPathUnits="userSpaceOnUse"
       id="clipPath592"><path
         d="M 0,0 H 595.276 V 793.701 H 0 Z"
         id="path590" /></clipPath><clipPath
       clipPathUnits="userSpaceOnUse"
       id="clipPath612"><path
         d="M 0,0 H 595.276 V 793.701 H 0 Z"
         id="path610" /></clipPath><clipPath
       clipPathUnits="userSpaceOnUse"
       id="clipPath626"><path
         d="m 34.518,633.971 h 43.846 v 51.314 H 34.518 Z"
         id="path624" /></clipPath></defs><g
     id="g8"
     transform="matrix(1.3333333,0,0,-1.3333333,-28.032133,1009.1546)"><g
       id="g64"
       transform="translate(475.1839,755.4705)" /><g
       id="g70"
       transform="translate(477.6319,755.4705)" /><g
       id="g76"
       transform="translate(480.7939,760.3665)" /><g
       id="g82"
       transform="translate(483.1399,760.3665)" /><g
       id="g88"
       transform="translate(484.6699,760.3665)" /><g
       id="g94"
       transform="translate(487.8319,760.3665)" /><g
       id="g100"
       transform="translate(489.4639,760.3665)" /><g
       id="g106"
       transform="translate(493.4419,760.3665)" /><g
       id="g112"
       transform="translate(494.9719,760.3665)" /><g
       id="g118"
       transform="translate(499.7659,760.3665)" /><g
       id="g124"
       transform="translate(501.2959,760.3665)" /><g
       id="g130"
       transform="translate(504.3559,760.3665)" /><g
       id="g136"
       transform="translate(507.5179,760.3665)" /><g
       id="g142"
       transform="translate(510.0679,755.4705)" /><g
       id="g148"
       transform="translate(511.5979,755.4705)" /><g
       id="g154"
       transform="translate(513.2299,755.4705)" /><g
       id="g160"
       transform="translate(514.7599,760.3665)" /><g
       id="g166"
       transform="translate(518.7379,760.3665)" /><g
       id="g172"
       transform="translate(522.7159,760.3665)" /><g
       id="g178"
       transform="translate(524.2458,760.3665)" /><g
       id="g184"
       transform="translate(526.6938,760.3665)" /><g
       id="g190"
       transform="translate(529.9579,760.3665)" /><g
       id="g196"
       transform="translate(532.4059,760.3665)" /><g
       id="g202"
       transform="translate(535.5679,760.3665)" /><g
       id="g208"
       transform="translate(539.4438,760.3665)" /><g
       id="g214"
       transform="translate(541.0759,760.3665)" /><g
       id="g220"
       transform="translate(543.4219,760.3665)" /><g
       id="g226"
       transform="translate(546.5839,760.3665)" /><g
       id="g232"
       transform="translate(548.2159,755.4705)" /><g
       id="g238"
       transform="translate(558.1099,755.4705)" /><g
       id="g244"
       transform="translate(560.5579,755.4705)" /><g
       id="g250"
       transform="translate(562.9039,755.4705)" /><g
       id="g256"
       transform="translate(566.0659,755.4705)" /><g
       id="g262"
       transform="translate(567.5959,755.4705)" /><g
       id="g268"
       transform="translate(569.2279,755.4705)" /><text
       transform="matrix(1,0,0,-0.98038867,22.678,719.7597)"
       style="font-variant:normal;font-weight:normal;font-stretch:normal;font-size:3.9416px;font-family:'ITC Franklin Gothic Std Book';-inkscape-font-specification:ITCFranklinGothicStd-Book;writing-mode:lr-tb;fill:#ffffff;fill-opacity:1;fill-rule:nonzero;stroke:none"
       id="text542"><tspan
         x="0 2.6448135 4.8166351 6.9884567 9.1602783 10.208744 12.222901 14.394723 15.758517 17.851507 18.840849 21.012671 23.184492 24.232956 26.404778 28.576599 29.802437 30.850903 33.416885 35.667538"
         y="0"
         id="tspan540">Neue Version auf DVD</tspan></text><g
       id="g574"><g
         id="g576"
         clip-path="url(#clipPath580)"><g
           id="g582"
           transform="translate(70.6866,782.3622)" /></g></g><g
       id="g584"
       transform="translate(70.6866,782.3622)" /><g
       id="g586"><g
         id="g588"
         clip-path="url(#clipPath592)"><g
           id="g594"
           transform="translate(31.3271,756.866)"><path
             d="m 0,0 c -5.69,0 -10.303,-4.613 -10.303,-10.303 v -111.244 c 0,-5.69 4.613,-10.303 10.303,-10.303 h 282.875 c 5.69,0 10.303,4.613 10.303,10.303 V -10.303 C 293.178,-4.613 288.565,0 282.875,0 Z"
             style="fill:#061115;fill-opacity:1;fill-rule:nonzero;stroke:none"
             id="path596" /></g><g
           id="g598"
           transform="translate(85.0157,695.1854)"><path
             d="M 0,0 V 11.221 H -31.829 V 51.212 H -50.458 V 0 Z M 24.696,51.212 H 6.067 V 0 H 24.696 Z M 91.759,0 V 51.212 H 73.13 V 25.462 L 48.859,51.212 H 32.572 V 0 H 51.201 V 25.75 L 75.472,0 Z m 64.616,17.982 v 33.23 H 137.746 V 18.27 c 0,-4.748 -4.045,-7.481 -10.219,-7.481 -6.174,0 -10.007,2.733 -10.007,7.481 V 51.212 H 98.891 v -33.23 c 0,-11.221 12.881,-18.414 28.636,-18.414 15.755,0 28.848,7.193 28.848,18.414 M 225.461,0 201.828,26.253 223.97,51.212 H 202.786 L 191.715,36.755 180.644,51.212 H 159.46 L 181.602,26.253 157.97,0 h 21.29 L 191.715,15.752 204.17,0 Z"
             style="fill:#ffcc00;fill-opacity:1;fill-rule:nonzero;stroke:none"
             id="path600" /></g></g></g><g
       id="g602"
       transform="translate(147.8108,688.2979)"><path
         d="M 0,0 H -13.163 L -19.852,-27.045 -28.124,0 h -8.919 L -45.314,-27.045 -52.003,0 h -13.163 l 14.098,-51.212 h 10.213 l 8.272,25.246 8.272,-25.246 h 10.285 z m 37.833,-51.212 v 11.22 H 15.608 v 8.991 H 34.596 V -19.78 H 15.608 v 8.559 H 37.833 V 0 H 3.02 v -51.212 z m 38.696,0 v 11.22 H 55.023 V 0 H 42.435 v -51.212 z m 31.647,39.991 V 0 H 70.414 v -11.221 h 12.588 v -39.991 h 12.587 v 39.991 z"
         style="fill:#ffffff;fill-opacity:1;fill-rule:nonzero;stroke:none"
         id="path604" /></g><g
       id="g606"><g
         id="g608"
         clip-path="url(#clipPath612)"><g
           id="g614"
           transform="translate(56.4793,636.9434)"><path
             d="M 0,0 C 13.497,0 24.438,11.477 24.438,25.635 24.438,39.794 13.497,51.271 0,51.271 -13.497,51.271 -24.438,39.794 -24.438,25.635 -24.438,11.477 -13.497,0 0,0"
             style="fill:#ffcc00;fill-opacity:1;fill-rule:nonzero;stroke:none"
             id="path616" /></g></g></g><path
       d="m 55.069,685.235 h 1.654 v 0.049 h -1.654 z"
       style="fill:#797664;fill-opacity:1;fill-rule:nonzero;stroke:none"
       id="path618" /><g
       id="g620"><g
         id="g622"
         clip-path="url(#clipPath626)"><g
           id="g628"
           transform="translate(57.4754,678.1165)"><path
             d="M 0,0 C 0.152,0.083 0.65,0.083 0.802,0 Z"
             style="fill:#797664;fill-opacity:1;fill-rule:evenodd;stroke:none"
             id="path630" /></g><g
           id="g632"
           transform="translate(48.8536,676.5124)"><path
             d="M 0,0 C 0.116,-0.185 0.017,-0.584 0.05,-0.852 -0.066,-0.667 0.033,-0.268 0,0"
             style="fill:#797664;fill-opacity:1;fill-rule:evenodd;stroke:none"
             id="path634" /></g><g
           id="g636"
           transform="translate(57.8263,676.2618)"><path
             d="M 0,0 C 0.086,0.083 0.515,0.083 0.602,0 Z"
             style="fill:#797664;fill-opacity:1;fill-rule:evenodd;stroke:none"
             id="path638" /></g><g
           id="g640"
           transform="translate(53.5154,675.2091)"><path
             d="M 0,0 C 0.083,-0.054 0.083,-0.447 0,-0.501 Z"
             style="fill:#797664;fill-opacity:1;fill-rule:evenodd;stroke:none"
             id="path642" /></g><g
           id="g644"
           transform="translate(59.6308,675.2091)"><path
             d="M 0,0 C 0.083,-0.07 0.083,-0.481 0,-0.551 Z"
             style="fill:#797664;fill-opacity:1;fill-rule:evenodd;stroke:none"
             id="path646" /></g><g
           id="g648"
           transform="translate(48.9037,675.0086)"><path
             d="M 0,0 C 0.115,-0.119 0.018,-0.45 0.05,-0.652 -0.065,-0.533 0.032,-0.202 0,0"
             style="fill:#797664;fill-opacity:1;fill-rule:evenodd;stroke:none"
             id="path650" /></g><g
           id="g652"
           transform="translate(60.7838,674.8583)"><path
             d="M 0,0 C 0.083,-0.152 0.083,-0.65 0,-0.802 Z"
             style="fill:#797664;fill-opacity:1;fill-rule:evenodd;stroke:none"
             id="path654" /></g><g
           id="g656"
           transform="translate(53.9665,674.2066)"><path
             d="M 0,0 C 0.086,0.083 0.515,0.083 0.602,0 Z"
             style="fill:#797664;fill-opacity:1;fill-rule:evenodd;stroke:none"
             id="path658" /></g><g
           id="g660"
           transform="translate(52.8638,673.0035)"><path
             d="M 0,0 C 0.182,0.253 0.414,0.455 0.702,0.602 0.162,0.932 -0.769,0.222 0,0 M 2.155,0.652 C 2.262,0.334 2.792,0.195 3.158,0.301 3.23,0.892 2.56,0.649 2.155,0.652 M 0.902,1.203 H 1.103 1.704 C 2.088,1.152 2.503,1.133 2.907,1.103 3.311,1.055 3.701,0.994 4.01,0.852 4.637,-0.789 9.123,-0.074 7.669,-2.757 7.122,-3.078 6.565,-3.39 6.065,-3.76 4.88,-4.175 2.838,-5.773 1.053,-5.765 0.78,-5.763 0.417,-5.72 0.15,-5.614 c -0.315,0.125 -1.371,0.921 -1.153,1.153 h 0.502 c 0.267,-0.027 0.845,-0.1 1.253,-0.1 1.243,-0.003 2.122,0.597 3.258,1.052 0.449,0.18 0.999,0.329 1.604,0.552 0.458,0.167 1.884,0.615 1.053,1.152 C 6.262,-1.785 6.206,-2.24 5.965,-2.406 5.681,-2.601 5.078,-2.709 4.561,-2.907 3.255,-3.41 0.599,-4.479 -0.902,-3.76 c -0.453,0.217 -0.626,0.773 -1.003,1.103 -0.161,0.141 -0.689,0.272 -0.802,0.502 -0.186,0.379 0.053,0.95 0.251,1.203 0.189,0.241 0.647,0.488 1.002,0.802 0.366,0.322 0.708,0.629 1.003,0.802 0.411,0.224 0.857,0.412 1.353,0.551"
             style="fill:#fecc00;fill-opacity:1;fill-rule:evenodd;stroke:none"
             id="path662" /></g><g
           id="g664"
           transform="translate(48.9539,673.8056)"><path
             d="M 0,0 C 0.115,-0.102 0.018,-0.416 0.05,-0.602 -0.065,-0.499 0.032,-0.185 0,0"
             style="fill:#797664;fill-opacity:1;fill-rule:evenodd;stroke:none"
             id="path666" /></g><g
           id="g668"
           transform="translate(49.004,672.6526)"><path
             d="M 0,0 C 0.115,-0.086 0.018,-0.383 0.05,-0.551 -0.065,-0.466 0.032,-0.169 0,0"
             style="fill:#797664;fill-opacity:1;fill-rule:evenodd;stroke:none"
             id="path670" /></g><g
           id="g672"
           transform="translate(49.0541,671.5499)"><path
             d="M 0,0 C 0.115,-0.102 0.018,-0.416 0.05,-0.602 -0.065,-0.499 0.032,-0.185 0,0"
             style="fill:#797664;fill-opacity:1;fill-rule:evenodd;stroke:none"
             id="path674" /></g><g
           id="g676"
           transform="translate(49.1043,670.3468)"><path
             d="M 0,0 C 0.114,-0.07 0.019,-0.349 0.05,-0.501 -0.064,-0.432 0.031,-0.152 0,0"
             style="fill:#797664;fill-opacity:1;fill-rule:evenodd;stroke:none"
             id="path678" /></g><g
           id="g680"
           transform="translate(51.8612,668.5423)"><path
             d="M 0,0 C 0.054,0.083 0.447,0.083 0.501,0 Z"
             style="fill:#797664;fill-opacity:1;fill-rule:evenodd;stroke:none"
             id="path682" /></g><g
           id="g684"
           transform="translate(43.1392,654.1058)"><path
             d="M 0,0 C -0.031,-0.152 0.064,-0.432 -0.05,-0.501 -0.019,-0.349 -0.114,-0.069 0,0"
             style="fill:#797664;fill-opacity:1;fill-rule:evenodd;stroke:none"
             id="path686" /></g><g
           id="g688"
           transform="translate(67.9018,651.2987)"><path
             d="M 0,0 C 0.054,0.083 0.447,0.083 0.501,0 Z"
             style="fill:#797664;fill-opacity:1;fill-rule:evenodd;stroke:none"
             id="path690" /></g><g
           id="g692"
           transform="translate(40.4324,651.0481)"><path
             d="M 0,0 C 0.114,-0.07 0.019,-0.349 0.05,-0.501 -0.064,-0.432 0.031,-0.152 0,0"
             style="fill:#797664;fill-opacity:1;fill-rule:evenodd;stroke:none"
             id="path694" /></g><g
           id="g696"
           transform="translate(41.1341,649.8951)"><path
             d="m 0,0 c 0.713,0.575 1.815,0.143 2.306,-0.351 0.213,-0.255 0.447,-0.489 0.702,-0.702 1.131,-1.306 2.188,-2.932 3.358,-4.712 0.971,-1.475 2.63,-3.213 2.757,-5.313 0.105,-1.737 -0.715,-3.281 -2.356,-3.359 H 6.115 c -2.059,0.336 -3.8,0.888 -6.215,1.454 -0.943,0.221 -1.92,0.478 -3.008,0.752 -0.787,0.198 -2.679,0.387 -2.807,1.003 -0.134,0.643 0.819,1.311 1.003,1.854 0.082,0.245 0.082,0.473 0.1,0.802 0.083,0.087 0.083,0.515 0,0.602 -0.038,0.66 -0.297,1.08 -0.552,1.654 -0.192,0.434 -0.639,1.228 -0.3,1.755 0.32,0.498 1.366,0.199 2.055,0.15 2.064,-0.148 2.601,0.875 2.807,2.456 0.068,0.016 0.042,0.126 0.05,0.201 C -0.559,-1.112 -0.388,-0.447 0,0"
             style="fill:#fecc00;fill-opacity:1;fill-rule:evenodd;stroke:none"
             id="path698" /></g><g
           id="g700"
           transform="translate(72.9646,648.8926)"><path
             d="M 0,0 C 0.832,0.391 0.926,-0.927 0.802,-1.654 0.525,-3.17 0.711,-4.575 1.604,-5.414 2.356,-6.12 4.673,-5.936 4.762,-7.168 4.797,-7.656 4.241,-8.243 3.86,-8.521 2.577,-9.456 0.794,-9.504 -0.802,-10.376 c -1.703,-0.93 -2.706,-2.538 -4.712,-2.958 h -0.752 c -1.102,0.218 -1.918,0.734 -2.256,1.654 -0.453,1.235 0.248,2.76 0.201,4.211 0.083,0.119 0.083,0.583 0,0.702 -0.052,1.618 -0.617,2.725 -0.551,4.461 0.115,0.135 0.017,0.484 0.05,0.702 0.088,0.964 0.371,1.734 1.504,1.654 0.619,-1.515 1.448,-3.044 3.208,-2.907 C -2.352,-2.72 -1.022,-0.951 0,0"
             style="fill:#fecc00;fill-opacity:1;fill-rule:evenodd;stroke:none"
             id="path702" /></g><g
           id="g704"
           transform="translate(40.3321,648.4415)"><path
             d="M 0,0 C 0.111,-0.006 0.021,-0.213 0.05,-0.301 0.042,-0.376 0.068,-0.486 0,-0.501 Z"
             style="fill:#797664;fill-opacity:1;fill-rule:evenodd;stroke:none"
             id="path706" /></g><g
           id="g708"
           transform="translate(64.1423,647.2886)"><path
             d="M 0,0 C -0.032,-0.218 0.065,-0.567 -0.05,-0.702 -0.018,-0.484 -0.116,-0.135 0,0"
             style="fill:#797664;fill-opacity:1;fill-rule:evenodd;stroke:none"
             id="path710" /></g><g
           id="g712"
           transform="translate(63.5408,646.9879)"><path
             d="M 0,0 C 0.115,-0.086 0.018,-0.383 0.05,-0.551 -0.065,-0.466 0.032,-0.169 0,0"
             style="fill:#797664;fill-opacity:1;fill-rule:evenodd;stroke:none"
             id="path714" /></g><g
           id="g716"
           transform="translate(35.8708,646.0856)"><path
             d="M 0,0 C 0.535,0.117 1.286,0.017 1.905,0.05 1.37,-0.067 0.618,0.033 0,0"
             style="fill:#797664;fill-opacity:1;fill-rule:evenodd;stroke:none"
             id="path718" /></g><g
           id="g720"
           transform="translate(34.768,644.7321)"><path
             d="M 0,0 V -0.652 C -0.083,-0.549 -0.083,-0.103 0,0"
             style="fill:#797664;fill-opacity:1;fill-rule:evenodd;stroke:none"
             id="path722" /></g><g
           id="g724"
           transform="translate(63.5909,644.1807)"><path
             d="M 0,0 C -0.032,-0.185 0.065,-0.499 -0.05,-0.602 -0.018,-0.416 -0.115,-0.102 0,0"
             style="fill:#797664;fill-opacity:1;fill-rule:evenodd;stroke:none"
             id="path726" /></g><g
           id="g728"
           transform="translate(63.5408,642.9777)"><path
             d="M 0,0 C -0.033,-0.451 0.066,-1.036 -0.05,-1.404 -0.017,-0.952 -0.117,-0.368 0,0"
             style="fill:#797664;fill-opacity:1;fill-rule:evenodd;stroke:none"
             id="path730" /></g><g
           id="g732"
           transform="translate(64.6435,642.1255)"><path
             d="M 0,0 C 0.083,-0.119 0.083,-0.583 0,-0.702 Z"
             style="fill:#797664;fill-opacity:1;fill-rule:evenodd;stroke:none"
             id="path734" /></g><g
           id="g736"
           transform="translate(35.2191,641.925)"><path
             d="M 0,0 C 0.083,-0.087 0.083,-0.515 0,-0.602 Z"
             style="fill:#797664;fill-opacity:1;fill-rule:evenodd;stroke:none"
             id="path738" /></g><g
           id="g740"
           transform="translate(36.3219,641.925)"><path
             d="M 0,0 C 0.083,-0.087 0.083,-0.515 0,-0.602 Z"
             style="fill:#797664;fill-opacity:1;fill-rule:evenodd;stroke:none"
             id="path742" /></g><g
           id="g744"
           transform="translate(55.4202,639.5189)"><path
             d="M 0,0 C 0.152,0.116 0.517,0.018 0.752,0.05 0.6,-0.065 0.235,0.033 0,0"
             style="fill:#797664;fill-opacity:1;fill-rule:evenodd;stroke:none"
             id="path746" /></g><path
           d="m 34.517,638.917 h 0.05 v -0.551 h -0.05 z"
           style="fill:#797664;fill-opacity:1;fill-rule:evenodd;stroke:none"
           id="path748" /><g
           id="g750"
           transform="translate(55.8714,636.6116)"><path
             d="M 0,0 C 0.702,0.084 1.754,0.084 2.456,0 Z"
             style="fill:#797664;fill-opacity:1;fill-rule:evenodd;stroke:none"
             id="path752" /></g><g
           id="g754"
           transform="translate(53.7661,636.5615)"><path
             d="M 0,0 C 0.086,0.115 0.383,0.018 0.551,0.05 0.466,-0.065 0.169,0.032 0,0"
             style="fill:#797664;fill-opacity:1;fill-rule:evenodd;stroke:none"
             id="path756" /></g><g
           id="g758"
           transform="translate(60.3326,636.6116)"><path
             d="M 0,0 C 0.335,-0.033 0.801,0.066 1.053,-0.05 0.718,-0.017 0.251,-0.116 0,0"
             style="fill:#797664;fill-opacity:1;fill-rule:evenodd;stroke:none"
             id="path760" /></g><g
           id="g762"
           transform="translate(66.6988,635.5589)"><path
             d="M 0,0 H 0.752 C 0.616,-0.083 0.136,-0.083 0,0"
             style="fill:#797664;fill-opacity:1;fill-rule:evenodd;stroke:none"
             id="path764" /></g><g
           id="g766"
           transform="translate(47.2496,635.4586)"><path
             d="M 0,0 H 0.652 C 0.549,-0.083 0.103,-0.083 0,0"
             style="fill:#797664;fill-opacity:1;fill-rule:evenodd;stroke:none"
             id="path768" /></g><g
           id="g770"
           transform="translate(66.4982,634.0551)"><path
             d="M 0,0 H 0.602 C 0.515,-0.083 0.087,-0.083 0,0"
             style="fill:#797664;fill-opacity:1;fill-rule:evenodd;stroke:none"
             id="path772" /></g><g
           id="g774"
           transform="translate(50.5078,683.2795)"><path
             d="M 0,0 C 0.163,0.205 0.347,0.389 0.551,0.551 0.389,0.347 0.205,0.163 0,0"
             style="fill:#797664;fill-opacity:1;fill-rule:evenodd;stroke:none"
             id="path776" /></g><g
           id="g778"
           transform="translate(69.6562,635.0576)"><path
             d="M 0,0 C 0.179,0.221 0.38,0.422 0.602,0.602 0.422,0.38 0.221,0.18 0,0"
             style="fill:#797664;fill-opacity:1;fill-rule:evenodd;stroke:none"
             id="path780" /></g><g
           id="g782"
           transform="translate(61.9367,683.2294)"><path
             d="M 0,0 C 0.188,-0.146 0.355,-0.313 0.501,-0.501 0.313,-0.355 0.146,-0.188 0,0"
             style="fill:#797664;fill-opacity:1;fill-rule:evenodd;stroke:none"
             id="path784" /></g><g
           id="g786"
           transform="translate(45.1944,660.121)"><path
             d="M 0,0 C -0.192,-0.311 -0.631,-0.393 -0.451,-0.752 -0.166,-0.859 0.43,-0.289 0.652,0.05 0.82,0.307 0.847,0.657 0.752,1.003 0.093,1.135 0.196,0.318 0,0 m 18.747,7.72 c 0.271,0.214 0.428,0.541 0.401,1.052 -0.626,0.426 -1.369,0.736 -1.904,1.253 -0.217,-1.109 0.62,-1.968 1.503,-2.305 M 6.416,15.289 C 6.883,15.154 6.702,14.372 7.068,14.136 7.434,14.612 7.005,15.479 6.667,15.74 6.624,15.665 6.505,15.667 6.416,15.64 Z m 7.519,0.1 c -0.192,0.318 -0.665,0.456 -0.952,0.501 -0.064,-0.003 -0.07,-0.064 -0.151,-0.05 0.021,-0.121 -0.091,-0.109 -0.05,-0.251 0.636,-0.099 0.823,-0.647 0.953,-1.253 0.579,-0.003 0.36,0.789 0.2,1.053 m -1.654,2.607 c -1.489,-0.413 -1.941,-2.18 -1.704,-4.011 -0.404,0.031 -0.82,0.05 -1.203,0.101 -0.087,0.083 -0.515,0.083 -0.602,0 h -0.2 c -0.198,0.053 -0.249,0.252 -0.251,0.501 0.083,0.054 0.083,0.447 0,0.501 C 8.24,16.22 8.126,17.157 7.318,17.594 6.129,18.24 5.032,17.057 4.912,15.89 4.747,14.276 5.509,11.413 6.366,13.434 4.973,13.668 5.114,16.815 6.817,16.141 7.51,15.866 8.031,14.113 7.218,13.534 6.923,13.361 6.581,13.055 6.216,12.732 5.861,12.419 5.402,12.171 5.213,11.93 5.015,11.678 4.776,11.106 4.963,10.727 5.076,10.497 5.604,10.367 5.765,10.226 6.142,9.896 6.314,9.34 6.767,9.123 c 1.501,-0.719 4.158,0.35 5.464,0.852 0.516,0.199 1.119,0.306 1.403,0.502 0.241,0.165 0.298,0.621 0.702,0.601 C 15.167,10.54 13.741,10.093 13.284,9.925 12.678,9.703 12.128,9.553 11.679,9.374 10.544,8.919 9.664,8.319 8.421,8.321 8.014,8.322 7.436,8.395 7.168,8.421 7.114,8.504 6.721,8.504 6.667,8.421 6.448,8.189 7.504,7.393 7.82,7.268 8.086,7.163 8.449,7.119 8.722,7.118 10.507,7.109 12.55,8.708 13.735,9.123 14.04,9.161 14.246,9.1 14.286,8.872 14.036,8.21 13.49,8.255 12.883,7.97 12.261,7.678 11.611,7.174 11.028,6.767 10.394,6.325 9.863,5.625 9.273,5.414 6.816,4.532 6.615,7.377 5.213,8.121 4.984,6.134 3.44,5.061 3.258,3.108 3.207,2.56 3.411,1.786 3.258,1.153 3.18,0.83 2.855,0.469 2.607,0.1 1.218,-1.962 0.283,-4.719 0.301,-7.97 0.303,-8.43 0.47,-9.026 0.1,-9.424 c -1.012,0.253 -1.719,1.329 -1.754,2.707 -0.024,0.93 0.32,1.842 0.25,2.607 -0.43,-0.423 -0.594,-1.11 -0.651,-1.905 -0.114,-0.07 -0.019,-0.349 -0.05,-0.501 -0.01,-1.514 0.487,-2.521 1.203,-3.309 0.179,-0.221 0.38,-0.422 0.601,-0.601 1.321,-1.275 3.308,-2.962 4.963,-4.211 0.57,-0.43 1.237,-0.979 1.453,-1.604 0.437,-1.262 -0.701,-1.959 -1.604,-2.306 0.743,-1.339 2.468,-2.56 1.805,-4.662 0.978,0.403 1.087,1.952 0.501,2.858 -0.253,0.391 -0.796,0.477 -0.651,0.952 0.749,0.156 1.083,-0.628 1.654,-0.902 0.656,-0.316 1.358,-0.287 2.406,-0.301 0.235,0.032 0.6,-0.066 0.752,0.05 1.931,0.041 3.438,0.505 4.511,1.404 0.188,0.146 0.355,0.313 0.501,0.501 0.41,0.33 0.79,1.505 1.404,1.303 0.572,-0.188 0.318,-1.452 0.15,-2.055 -0.212,-0.764 -0.459,-1.559 -0.501,-2.105 -0.053,-0.693 -0.057,-1.369 0.702,-1.304 0.191,1.413 0.531,2.677 0.551,4.261 0.117,0.368 0.017,0.952 0.05,1.404 v 0.601 c 0.115,0.102 0.018,0.417 0.05,0.602 v 2.255 c -0.031,0.169 0.065,0.466 -0.05,0.552 -0.111,1.699 0.429,2.746 2.156,2.606 0.027,1.276 1.007,1.6 2.205,1.705 h 0.502 c 0.882,-0.004 1.25,-0.521 2.055,-0.602 -0.256,0.714 -1.017,0.922 -1.654,1.253 0.29,1.364 0.663,2.626 0.551,4.161 -0.193,2.659 -1.745,4.694 -2.907,6.316 -0.146,0.188 -0.313,0.355 -0.502,0.501 -0.243,0.157 -0.418,0.384 -0.802,0.401 1.393,-2.241 3.618,-4.842 3.61,-8.672 -0.004,-1.692 -0.614,-3.545 -2.607,-3.057 -0.288,0.326 -0.318,0.533 -0.351,0.852 -0.212,2.056 0.084,3.595 -0.301,5.113 -0.325,1.284 -1.097,2.464 -1.754,3.659 -0.625,1.136 -0.876,2.684 -1.404,4.01 -0.234,0.589 -0.576,1.139 -1.002,1.704 -0.691,0.916 -1.305,1.99 -0.802,3.309 1.453,2.682 -3.033,1.967 -3.66,3.609 -0.268,1.037 0.019,2.251 0.953,2.406 h 0.601 c 0.606,-0.146 1.072,-0.432 1.203,-1.053 v -0.551 c -0.026,-0.492 -0.251,-0.785 -0.3,-1.253 0.412,-0.721 1.656,-0.375 1.453,0.651 0.084,0.152 0.084,0.65 0,0.802 -0.221,1.7 -0.615,3.228 -2.506,3.259 -0.152,0.083 -0.65,0.083 -0.802,0 m 1.554,3.258 c -0.1,-0.167 -0.349,-0.186 -0.301,-0.501 0.434,-0.354 0.841,0.357 1.354,0.451 0.297,0.054 0.602,-0.215 0.701,0.2 -0.349,0.851 -2.001,1.756 -1.754,-0.15 M 27.77,-11.228 c -1.022,-0.952 -2.352,-2.72 -4.11,-2.858 -1.76,-0.137 -2.589,1.392 -3.208,2.908 -1.133,0.08 -1.415,-0.691 -1.504,-1.654 -0.116,-0.135 -0.018,-0.484 -0.05,-0.702 -0.066,-1.736 0.499,-2.843 0.551,-4.461 v -0.702 c 0.047,-1.451 -0.653,-2.976 -0.2,-4.211 0.337,-0.92 1.153,-1.436 2.255,-1.654 0.136,-0.083 0.617,-0.083 0.752,0 2.006,0.419 3.009,2.027 4.712,2.957 1.597,0.872 3.379,0.921 4.662,1.855 0.382,0.278 0.937,0.865 0.902,1.354 -0.089,1.232 -2.406,1.048 -3.158,1.754 -0.893,0.839 -1.079,2.244 -0.802,3.759 h 0.05 c 0.015,0.215 0.206,0.396 0.351,0.201 0,-2.097 0.892,-2.97 2.156,-3.86 0.681,-0.479 2.041,-1.077 2.005,-2.105 -0.027,-0.755 -1.123,-1.365 -1.705,-1.755 -2.142,-1.434 -4.924,-2.093 -6.366,-4.06 -0.221,-0.179 -0.422,-0.38 -0.601,-0.601 -0.634,-0.552 -1.396,-0.977 -2.557,-1.003 h -0.601 c -1.011,0.089 -1.513,0.097 -2.106,0.401 -1.257,0.647 -1.008,2.439 -3.007,2.105 -0.251,0.117 -0.718,0.018 -1.053,0.051 -0.684,-0.012 -1.466,0.018 -2.005,0 -0.702,0.083 -1.754,0.083 -2.456,0 H 9.123 C 8.954,-23.541 8.657,-23.445 8.572,-23.56 5.67,-23.431 4.966,-25.501 2.857,-26.166 H 2.406 c -2.154,0.458 -4.08,1.525 -6.466,2.155 -1.026,0.271 -2.332,0.508 -3.509,0.802 -1.137,0.284 -2.772,0.391 -3.058,1.454 v 0.551 c 0.183,0.837 0.625,1.414 0.652,2.406 0.083,0.087 0.083,0.516 0,0.602 -0.008,0.861 -0.413,1.325 -0.451,2.155 v 0.652 c 0.085,0.734 0.422,1.216 1.102,1.354 0.619,0.033 1.37,-0.067 1.905,0.05 1.045,0.06 1.555,0.622 1.855,1.353 0.173,0.423 0.125,1.132 0.652,1.203 -0.042,-0.141 0.07,-0.13 0.05,-0.251 v -0.501 c -0.207,-1.58 -0.743,-2.604 -2.807,-2.456 -0.689,0.049 -1.735,0.348 -2.056,-0.15 -0.338,-0.527 0.109,-1.321 0.301,-1.755 0.255,-0.574 0.514,-0.994 0.552,-1.654 v -0.602 c -0.018,-0.329 -0.018,-0.557 -0.101,-0.801 -0.183,-0.544 -1.136,-1.211 -1.002,-1.855 0.128,-0.616 2.02,-0.804 2.807,-1.003 1.088,-0.274 2.065,-0.531 3.007,-0.752 2.416,-0.566 4.157,-1.118 6.216,-1.453 0.103,-0.083 0.549,-0.083 0.652,0 1.641,0.077 2.461,1.621 2.356,3.358 -0.128,2.1 -1.787,3.838 -2.757,5.314 -1.17,1.779 -2.227,3.405 -3.359,4.711 -0.213,0.255 -0.447,0.489 -0.701,0.702 -0.491,0.494 -1.593,0.927 -2.306,0.351 -0.461,-0.282 -0.691,0.147 -0.652,0.652 -0.031,0.152 0.064,0.432 -0.05,0.501 -0.061,1.6 0.59,2.445 1.153,3.509 1.042,1.967 1.698,4.565 2.707,6.416 0.645,1.184 1.646,2.306 2.506,3.559 0.363,0.529 0.817,1.184 1.253,1.805 0.759,1.079 1.494,1.859 1.103,3.509 -0.031,0.152 0.064,0.431 -0.05,0.501 v 0.601 c -0.032,0.186 0.065,0.5 -0.05,0.602 v 0.551 c -0.032,0.169 0.064,0.466 -0.05,0.552 v 0.551 c -0.032,0.185 0.065,0.499 -0.051,0.602 v 0.551 c -0.032,0.202 0.066,0.533 -0.05,0.652 v 0.651 c -0.032,0.268 0.066,0.668 -0.05,0.852 -0.082,2.89 0.377,5.238 1.654,6.768 0.205,0.162 0.389,0.346 0.552,0.551 1.006,0.798 2.322,1.286 4.01,1.403 h 1.654 c 2.247,-0.159 3.911,-0.9 5.213,-2.005 0.146,-0.188 0.314,-0.355 0.502,-0.501 2.742,-2.705 1.184,-8.791 2.706,-12.381 0.68,-1.603 1.619,-3.189 2.557,-4.662 0.933,-1.466 2.121,-2.746 3.058,-4.211 0.904,-1.414 1.714,-2.994 2.255,-5.012 0.58,-2.159 1.529,-6.027 -0.05,-7.569"
             style="fill:#081319;fill-opacity:1;fill-rule:evenodd;stroke:none"
             id="path788" /></g><g
           id="g790"
           transform="translate(43.44,649.5443)"><path
             d="M 0,0 C 0.255,-0.213 0.489,-0.447 0.702,-0.702 0.447,-0.489 0.213,-0.255 0,0"
             style="fill:#797664;fill-opacity:1;fill-rule:evenodd;stroke:none"
             id="path792" /></g><g
           id="g794"
           transform="translate(60.7838,681.5251)"><path
             d="m 0,0 c -0.099,-0.415 -0.404,-0.146 -0.702,-0.2 -0.512,-0.094 -0.919,-0.805 -1.353,-0.452 -0.048,0.316 0.2,0.334 0.301,0.502 C -2.002,1.756 -0.35,0.851 0,0"
             style="fill:#ffffff;fill-opacity:1;fill-rule:evenodd;stroke:none"
             id="path796" /></g><g
           id="g798"
           transform="translate(52.4126,673.6552)"><path
             d="M 0,0 C 0.813,0.578 0.292,2.332 -0.401,2.607 -2.104,3.281 -2.246,0.134 -0.852,-0.1 -1.709,-2.121 -2.471,0.742 -2.306,2.356 -2.186,3.523 -1.089,4.705 0.1,4.06 0.908,3.622 1.022,2.686 1.103,1.554 V 1.053 C 1.104,0.804 1.156,0.604 1.353,0.551 0.858,0.412 0.411,0.224 0,0"
             style="fill:#ffffff;fill-opacity:1;fill-rule:evenodd;stroke:none"
             id="path800" /></g><g
           id="g802"
           transform="translate(44.2921,650.2961)"><path
             d="M 0,0 C 0.221,-0.18 0.422,-0.38 0.602,-0.602 0.38,-0.422 0.18,-0.221 0,0"
             style="fill:#797664;fill-opacity:1;fill-rule:evenodd;stroke:none"
             id="path804" /></g><g
           id="g806"
           transform="translate(55.4202,639.5189)"><path
             d="m 0,0 c -1.048,0.014 -1.75,-0.014 -2.406,0.301 -0.571,0.274 -0.905,1.058 -1.654,0.902 -0.145,-0.475 0.398,-0.561 0.651,-0.952 0.586,-0.905 0.477,-2.454 -0.501,-2.858 0.664,2.102 -1.061,3.323 -1.804,4.662 0.902,0.347 2.041,1.044 1.604,2.306 -0.217,0.625 -0.884,1.174 -1.454,1.604 -1.655,1.25 -3.641,2.936 -4.963,4.211 -0.179,0.221 -0.38,0.422 -0.601,0.601 -0.716,0.788 -1.213,1.795 -1.203,3.309 0.114,0.069 0.018,0.349 0.05,0.501 0.057,0.795 0.222,1.483 0.652,1.905 0.069,-0.765 -0.275,-1.677 -0.251,-2.607 0.035,-1.378 0.742,-2.454 1.754,-2.707 0.37,0.398 0.203,0.994 0.201,1.454 -0.018,3.251 0.917,6.008 2.306,8.07 0.248,0.369 0.573,0.73 0.651,1.053 0.153,0.633 -0.051,1.407 0,1.955 0.182,1.953 1.726,3.027 1.955,5.013 1.402,-0.744 1.604,-3.589 4.061,-2.707 0.589,0.211 1.12,0.911 1.754,1.353 0.583,0.407 1.233,0.912 1.855,1.203 0.607,0.285 1.153,0.24 1.403,0.903 -0.04,0.227 -0.246,0.288 -0.551,0.25 0.499,0.369 1.057,0.681 1.604,1.003 -0.503,-1.319 0.111,-2.392 0.802,-3.309 0.427,-0.565 0.768,-1.115 1.003,-1.704 0.527,-1.326 0.778,-2.874 1.403,-4.01 0.658,-1.195 1.429,-2.375 1.755,-3.659 0.384,-1.518 0.088,-3.056 0.3,-5.113 0.033,-0.319 0.063,-0.525 0.351,-0.852 1.993,-0.488 2.603,1.365 2.607,3.057 0.008,3.83 -2.217,6.432 -3.609,8.672 0.383,-0.017 0.558,-0.244 0.802,-0.401 0.146,-0.188 0.313,-0.355 0.501,-0.501 1.162,-1.622 2.714,-3.657 2.907,-6.316 0.112,-1.535 -0.261,-2.797 -0.551,-4.161 0.637,-0.331 1.399,-0.539 1.654,-1.253 -0.805,0.081 -1.173,0.598 -2.055,0.602 -0.054,0.083 -0.447,0.083 -0.501,0 C 11.283,11.675 10.304,11.351 10.276,10.076 8.549,10.215 8.009,9.168 8.121,7.469 8.152,7.3 8.056,7.003 8.171,6.918 V 4.662 C 8.056,4.56 8.152,4.246 8.121,4.06 V 3.459 C 8.004,3.091 8.104,2.507 8.07,2.055 8.051,0.471 7.71,-0.793 7.519,-2.206 6.76,-2.27 6.765,-1.595 6.817,-0.902 6.859,-0.356 7.106,0.44 7.318,1.203 7.486,1.806 7.74,3.07 7.168,3.258 6.555,3.46 6.174,2.285 5.765,1.955 5.576,1.809 5.409,1.642 5.263,1.454 4.191,0.555 2.683,0.091 0.752,0.05 0.517,0.018 0.152,0.116 0,0"
             style="fill:#ffffff;fill-opacity:1;fill-rule:evenodd;stroke:none"
             id="path808" /></g><g
           id="g810"
           transform="translate(60.6835,640.9726)"><path
             d="M 0,0 C 0.146,0.188 0.313,0.355 0.501,0.501 0.355,0.313 0.188,0.146 0,0"
             style="fill:#797664;fill-opacity:1;fill-rule:evenodd;stroke:none"
             id="path812" /></g><g
           id="g814"
           transform="translate(65.9469,662.9281)"><path
             d="M 0,0 C 0.188,-0.146 0.355,-0.313 0.501,-0.501 0.313,-0.355 0.146,-0.188 0,0"
             style="fill:#797664;fill-opacity:1;fill-rule:evenodd;stroke:none"
             id="path816" /></g><g
           id="g818"
           transform="translate(59.6308,675.2091)"><path
             d="m 0,0 c -0.131,0.621 -0.597,0.907 -1.203,1.053 -0.086,0.083 -0.515,0.083 -0.602,0 -0.933,-0.155 -1.221,-1.369 -0.952,-2.406 -0.309,0.142 -0.699,0.202 -1.103,0.25 -0.236,1.831 0.215,3.598 1.705,4.01 h 0.802 C 0.537,2.877 0.931,1.349 1.153,-0.351 V -1.153 C 1.356,-2.179 0.112,-2.526 -0.301,-1.805 -0.252,-1.336 -0.027,-1.043 0,-0.551 0.083,-0.481 0.083,-0.07 0,0"
             style="fill:#ffffff;fill-opacity:1;fill-rule:evenodd;stroke:none"
             id="path820" /></g><g
           id="g822"
           transform="translate(51.6106,675.7605)"><path
             d="M 0,0 C 0.089,0.028 0.208,0.026 0.251,0.1 0.589,-0.161 1.018,-1.028 0.652,-1.504 0.286,-1.268 0.467,-0.485 0,-0.351 Z"
             style="fill:#ffffff;fill-opacity:1;fill-rule:evenodd;stroke:none"
             id="path824" /></g><g
           id="g826"
           transform="translate(62.438,670.1463)"><path
             d="M 0,0 C 0.535,-0.518 1.278,-0.827 1.905,-1.253 1.932,-1.764 1.774,-2.092 1.504,-2.306 0.62,-1.969 -0.217,-1.11 0,0"
             style="fill:#ffffff;fill-opacity:1;fill-rule:evenodd;stroke:none"
             id="path828" /></g><g
           id="g830"
           transform="translate(45.9463,661.1235)"><path
             d="m 0,0 c 0.095,-0.346 0.068,-0.695 -0.1,-0.952 -0.222,-0.34 -0.818,-0.909 -1.103,-0.802 -0.18,0.359 0.259,0.44 0.451,0.751 C -0.556,-0.684 -0.659,0.132 0,0"
             style="fill:#ffffff;fill-opacity:1;fill-rule:evenodd;stroke:none"
             id="path832" /></g><g
           id="g834"
           transform="translate(58.9291,674.4572)"><path
             d="m 0,0 c -0.129,0.606 -0.316,1.154 -0.952,1.253 -0.042,0.142 0.07,0.13 0.05,0.251 0.081,-0.014 0.086,0.047 0.15,0.05 C -0.464,1.509 0.008,1.371 0.2,1.053 0.36,0.789 0.58,-0.004 0,0"
             style="fill:#ffffff;fill-opacity:1;fill-rule:evenodd;stroke:none"
             id="path836" /></g><g
           id="g838"
           transform="translate(56.0217,673.3043)"><path
             d="M 0,0 C -0.366,-0.106 -0.896,0.033 -1.003,0.351 -0.598,0.348 0.072,0.591 0,0"
             style="fill:#000000;fill-opacity:1;fill-rule:evenodd;stroke:none"
             id="path840" /></g><g
           id="g842"
           transform="translate(53.5655,673.6051)"><path
             d="M 0,0 C -0.288,-0.146 -0.52,-0.349 -0.702,-0.602 -1.471,-0.38 -0.54,0.331 0,0"
             style="fill:#000000;fill-opacity:1;fill-rule:evenodd;stroke:none"
             id="path844" /></g></g></g></g></svg>
